<svg viewBox="459 201.5909 228 171" width="112" height="84" xmlns="http://www.w3.org/2000/svg" xmlns:xlink="http://www.w3.org/1999/xlink" preserveAspectRatio="none"><g opacity="1" transform="rotate(0 459 201.5909)">
<svg width="228" height="171" x="459" y="201.5909" version="1.1" preserveAspectRatio="none" viewBox="10 32.5 180 135">
  <g transform="matrix(1 0 0 1 0 0)"><g><path fill="#13d413" d="M190 167.5V47.629l-61.38-14.413-57.96 13.697L10 32.5v119.871l60.84 14.413 57.96-13.697L190 167.5zM131.5 40.199l52.2 12.175v107.427l-52.2-12.175V40.199zM67.6 159.891l-51.3-12.265V40.199l51.3 12.175v107.517zm57.6-12.265l-51.3 12.175V52.374l51.3-12.175v107.427z" data-color="1" class="aLgOaV3zRcolors-03235ec29-673f-45e6-ac88-6428c6389cf8"></path></g></g>
  <g transform="matrix(1 0 0 1 0 0)" class="companyName3235ec29-673f-45e6-ac88-6428c6389cf8"><path id="id-3235ec29-673f-45e6-ac88-6428c6389cf8D6z1nYkh5" d="M4.32 0L4.32-26.40L13.72-26.40Q18.28-26.40 20.50-24.50Q22.72-22.60 22.72-19.12L22.72-19.12Q22.72-17.04 21.54-15.44Q20.36-13.84 18.28-13.44L18.28-13.44L18.28-13.40Q20.60-12.96 22-11.28Q23.40-9.60 23.40-7.40L23.40-7.40Q23.40-4 20.84-2Q18.28 0 13.68 0L13.68 0L4.32 0ZM7.52-14.80L13.76-14.80Q16.60-14.80 17.98-15.86Q19.36-16.92 19.36-19.12L19.36-19.12Q19.36-23.40 13.76-23.40L13.76-23.40L7.52-23.40L7.52-14.80ZM7.52-3L14.44-3Q17.24-3 18.64-4.14Q20.04-5.28 20.04-7.40L20.04-7.40Q20.04-9.52 18.64-10.66Q17.24-11.80 14.44-11.80L14.44-11.80L7.52-11.80L7.52-3Z M43.96-20L47.16-20L47.16 0L44.36 0L44.16-3.04Q42.16 0.40 37 0.40L37 0.40Q33.76 0.40 31.70-1.40Q29.64-3.20 29.64-6.92L29.64-6.92L29.64-20L32.84-20L32.84-7.76Q32.84-4.84 34.04-3.62Q35.24-2.40 37.56-2.40L37.56-2.40Q40.32-2.40 42.14-4.08Q43.96-5.76 43.96-9.12L43.96-9.12L43.96-20Z M61.40 0.40Q58.52 0.40 56.20-0.74Q53.88-1.88 52.80-4.12L52.80-4.12L55.40-5.92Q56.08-4.16 57.76-3.28Q59.44-2.40 61.72-2.40L61.72-2.40Q64.08-2.40 65.32-3.24Q66.56-4.08 66.56-5.36L66.56-5.36Q66.56-6.52 65.40-7.22Q64.24-7.92 61.32-8.44L61.32-8.44Q58.44-8.96 56.76-9.70Q55.08-10.44 54.32-11.58Q53.56-12.72 53.56-14.40L53.56-14.40Q53.56-16.04 54.52-17.40Q55.48-18.76 57.28-19.58Q59.08-20.40 61.44-20.40L61.44-20.40Q64.64-20.40 66.58-19.22Q68.52-18.04 69.36-15.60L69.36-15.60L66.64-14Q66-15.92 64.70-16.76Q63.40-17.60 61.44-17.60L61.44-17.60Q59.48-17.60 58.12-16.72Q56.76-15.84 56.76-14.68L56.76-14.68Q56.76-13.36 57.94-12.64Q59.12-11.92 62.16-11.40L62.16-11.40Q66.32-10.72 68.04-9.36Q69.76-8 69.76-5.52L69.76-5.52Q69.76-3.80 68.74-2.46Q67.72-1.12 65.82-0.36Q63.92 0.40 61.40 0.40L61.40 0.40Z M77.28-23.84Q76.20-23.84 75.54-24.50Q74.88-25.16 74.88-26.24L74.88-26.24Q74.88-27.32 75.54-27.98Q76.20-28.64 77.28-28.64L77.28-28.64Q78.36-28.64 79.02-27.98Q79.68-27.32 79.68-26.24L79.68-26.24Q79.68-25.16 79.02-24.50Q78.36-23.84 77.28-23.84L77.28-23.84ZM78.88-20L78.88 0L75.68 0L75.68-20L78.88-20Z M100.48 0L93.76-9.88L89.52-5.64L89.52 0L86.32 0L86.32-29.20L89.52-29.20L89.52-9.64L99.88-20L103.88-20L96.08-12.20L104.36 0L100.48 0Z"></path></g>

</svg>
</g></svg>
